<svg width="130" height="186" viewBox="0 0 130 186" fill="none" xmlns="http://www.w3.org/2000/svg">
<rect width="130" height="186" rx="16" fill="#1601B5"/>
<path d="M108.364 55.668H95.6818C94.9318 51.9659 93.6193 48.7136 91.7443 45.9111C89.9034 43.1086 87.6534 40.7559 84.9943 38.853C82.3693 36.9154 79.4545 35.4623 76.25 34.4935C73.0455 33.5247 69.7045 33.0404 66.2273 33.0404C59.8864 33.0404 54.142 34.6665 48.9943 37.9188C43.8807 41.1711 39.8068 45.963 36.7727 52.2946C33.7727 58.6261 32.2727 66.3936 32.2727 75.5968C32.2727 84.8001 33.7727 92.5675 36.7727 98.8991C39.8068 105.231 43.8807 110.023 48.9943 113.275C54.142 116.527 59.8864 118.153 66.2273 118.153C69.7045 118.153 73.0455 117.669 76.25 116.7C79.4545 115.731 82.3693 114.296 84.9943 112.393C87.6534 110.455 89.9034 108.085 91.7443 105.283C93.6193 102.445 94.9318 99.1932 95.6818 95.5257H108.364C107.409 100.958 105.67 105.819 103.148 110.109C100.625 114.399 97.4886 118.049 93.7386 121.06C89.9886 124.035 85.7784 126.301 81.108 127.858C76.4716 129.415 71.5114 130.194 66.2273 130.194C57.2955 130.194 49.3523 127.979 42.3977 123.551C35.4432 119.122 29.9716 112.825 25.983 104.66C21.9943 96.4945 20 86.8068 20 75.5968C20 64.3868 21.9943 54.6992 25.983 46.5339C29.9716 38.3686 35.4432 32.0716 42.3977 27.643C49.3523 23.2143 57.2955 21 66.2273 21C71.5114 21 76.4716 21.7785 81.108 23.3354C85.7784 24.8924 89.9886 27.1759 93.7386 30.186C97.4886 33.1615 100.625 36.7943 103.148 41.0846C105.67 45.3402 107.409 50.2013 108.364 55.668Z" fill="white"/>
<path d="M33.2955 165H20L58.4545 58.7126H71.5455L110 165H96.7045L65.4091 75.5276H64.5909L33.2955 165Z" fill="white"/>
</svg>
